<svg xmlns="http://www.w3.org/2000/svg" xmlns:xlink="http://www.w3.org/1999/xlink" xmlns:lucid="lucid" width="620" height="460"><g transform="translate(20 20)" lucid:page-tab-id="0_0"><path d="M0 0h240v60H0z" stroke="#000" stroke-opacity="0" stroke-width="2" fill="#fff" fill-opacity="0"/><use xlink:href="#a" transform="matrix(1,0,0,1,5,5) translate(8.315972222222229 35.65972222222222)"/><path d="M0 120h240v60H0z" stroke="#000" stroke-opacity="0" stroke-width="2" fill="#fff" fill-opacity="0"/><use xlink:href="#b" transform="matrix(1,0,0,1,5,125) translate(8.315972222222229 35.65972222222222)"/><path d="M120 119V78.5" stroke="#000" stroke-width="2" fill="none"/><path d="M121 120h-2v-1.03h2z"/><path d="M120 63.24l4.64 14.26h-9.28z" stroke="#000" stroke-width="2"/><path d="M340 0h240v60H340z" stroke="#000" stroke-opacity="0" stroke-width="2" fill="#fff" fill-opacity="0"/><use xlink:href="#c" transform="matrix(1,0,0,1,345,5) translate(18.984375 35.65972222222222)"/><path d="M340 120h240v60H340z" stroke="#000" stroke-opacity="0" stroke-width="2" fill="#fff" fill-opacity="0"/><use xlink:href="#d" transform="matrix(1,0,0,1,345,125) translate(18.984375 35.65972222222222)"/><path d="M460 119V78.5" stroke="#000" stroke-width="2" fill="none"/><path d="M461 120h-2v-1.03h2z"/><path d="M460 63.24l4.64 14.26h-9.28z" stroke="#000" stroke-width="2"/><path d="M180 240h240v60H180z" stroke="#000" stroke-opacity="0" stroke-width="2" fill="#fff" fill-opacity="0"/><use xlink:href="#e" transform="matrix(1,0,0,1,185,245) translate(61.65798611111111 35.65972222222222)"/><path d="M180 360h240v60H180z" stroke="#000" stroke-opacity="0" stroke-width="2" fill="#fff" fill-opacity="0"/><use xlink:href="#f" transform="matrix(1,0,0,1,185,365) translate(61.65798611111111 35.65972222222222)"/><path d="M300 359v-40.5" stroke="#000" stroke-width="2" fill="none"/><path d="M301 360h-2v-1.03h2z"/><path d="M300 303.24l4.64 14.26h-9.28z" stroke="#000" stroke-width="2"/><path d="M198.04 180.7l46.2 46.22" stroke="#000" stroke-width="2" fill="none"/><path d="M198.77 180.02l-1.42 1.4-1.43-1.42h2.83z"/><path d="M255.05 237.7l-13.37-6.8 6.56-6.55z" stroke="#000" stroke-width="2"/><path d="M392.63 180.7l-46.2 46.22" stroke="#000" stroke-width="2" fill="none"/><path d="M393.32 181.43l-1.42-1.4.02-.03h2.83z"/><path d="M335.62 237.7l6.8-13.35 6.57 6.55z" stroke="#000" stroke-width="2"/><path d="M339 30h-80.5" stroke="#000" stroke-width="2" fill="none"/><path d="M340 31h-1.03v-2H340z"/><path d="M243.24 30l14.26-4.64v9.28z" stroke="#000" stroke-width="2"/><defs><path d="M202-1349h823v156H709v1037h316V0H202v-156h316v-1037H202v-156" id="g"/><path d="M932 0L611-444 288 0H94l415-556-397-526h199l300 421 298-421h201L713-558 1133 0H932" id="h"/><path d="M1003 0L516-638 353-469V0H162v-1349h191v673l572-673h225L646-777 1227 0h-224" id="i"/><path d="M745-142h380V0H143v-142h422v-798H246v-142h499v940zM545-1292v-192h200v192H545" id="j"/><path d="M706-1102c241 0 344 136 343 381V0H868v-695c1-168-57-273-220-268-190 6-283 138-283 336V0H185c-3-360 6-732-6-1082h170c4 54 7 126 8 185h3c63-121 164-204 346-205" id="k"/><path d="M865-914c-3-187-2-380-2-570h180v1261c0 76 1 155 6 223H877c-8-49-9-116-10-174h-5C801-44 708 26 530 26c-135 0-234-46-297-139s-95-232-95-419c0-377 131-566 392-566 176 0 271 63 335 184zm-286-51c-222 0-255 197-255 427 0 229 31 425 253 425 237 0 286-195 286-441 0-238-52-411-284-411" id="l"/><path d="M496 0v-299h235V0H496zm0-783v-299h235v299H496" id="m"/><path d="M873-819c-18-114-119-146-250-146-163 0-245 50-245 151 0 151 170 148 294 185 182 54 388 94 388 320 0 240-189 325-439 329-245 4-410-69-454-268l159-31c24 133 136 168 295 165 144-2 270-31 270-171 0-164-195-160-331-202-167-52-350-87-350-299 0-218 173-315 413-313 220 2 373 77 412 260" id="n"/><path d="M1048-32c-2 300-135 456-433 456-222-1-358-88-400-267l184-25c22 99 100 157 222 156 184-2 248-125 248-315 0-64 3-133-2-194C807-100 706-13 524-12c-306 0-381-228-381-537 0-318 85-550 400-550 164 0 271 83 325 202h3c1-60 3-134 12-185h171c-13 339-4 702-6 1050zM585-145c210-8 284-178 284-406 0-192-52-331-177-392-33-16-69-22-104-22-223 2-259 184-259 414 0 229 31 415 256 406" id="o"/><g id="a"><use transform="matrix(0.017361111111111112,0,0,0.017361111111111112,0,0)" xlink:href="#g"/><use transform="matrix(0.017361111111111112,0,0,0.017361111111111112,21.336805555555557,0)" xlink:href="#h"/><use transform="matrix(0.017361111111111112,0,0,0.017361111111111112,42.673611111111114,0)" xlink:href="#i"/><use transform="matrix(0.017361111111111112,0,0,0.017361111111111112,64.01041666666667,0)" xlink:href="#j"/><use transform="matrix(0.017361111111111112,0,0,0.017361111111111112,85.34722222222223,0)" xlink:href="#k"/><use transform="matrix(0.017361111111111112,0,0,0.017361111111111112,106.68402777777779,0)" xlink:href="#l"/><use transform="matrix(0.017361111111111112,0,0,0.017361111111111112,128.02083333333334,0)" xlink:href="#m"/><use transform="matrix(0.017361111111111112,0,0,0.017361111111111112,149.3576388888889,0)" xlink:href="#n"/><use transform="matrix(0.017361111111111112,0,0,0.017361111111111112,170.69444444444446,0)" xlink:href="#j"/><use transform="matrix(0.017361111111111112,0,0,0.017361111111111112,192.03125,0)" xlink:href="#o"/></g><path d="M617-1102c355 0 481 238 477 599H322c5 222 84 388 301 388 144 0 244-59 284-166l158 45C1002-72 854 20 623 20c-342 0-490-220-490-568 0-346 151-554 484-554zm291 461c-18-192-90-328-289-328-194 0-287 128-295 328h584" id="p"/><path d="M839-1335c-182-6-269 67-259 253h491v142H580V0H400v-940H138v-142h262c-15-293 132-408 418-402 94 2 200 7 281 21v145c-75-10-177-14-260-17" id="q"/><g id="b"><use transform="matrix(0.017361111111111112,0,0,0.017361111111111112,0,0)" xlink:href="#g"/><use transform="matrix(0.017361111111111112,0,0,0.017361111111111112,21.336805555555557,0)" xlink:href="#h"/><use transform="matrix(0.017361111111111112,0,0,0.017361111111111112,42.673611111111114,0)" xlink:href="#i"/><use transform="matrix(0.017361111111111112,0,0,0.017361111111111112,64.01041666666667,0)" xlink:href="#j"/><use transform="matrix(0.017361111111111112,0,0,0.017361111111111112,85.34722222222223,0)" xlink:href="#k"/><use transform="matrix(0.017361111111111112,0,0,0.017361111111111112,106.68402777777779,0)" xlink:href="#l"/><use transform="matrix(0.017361111111111112,0,0,0.017361111111111112,128.02083333333334,0)" xlink:href="#m"/><use transform="matrix(0.017361111111111112,0,0,0.017361111111111112,149.3576388888889,0)" xlink:href="#l"/><use transform="matrix(0.017361111111111112,0,0,0.017361111111111112,170.69444444444446,0)" xlink:href="#p"/><use transform="matrix(0.017361111111111112,0,0,0.017361111111111112,192.03125,0)" xlink:href="#q"/></g><path d="M713 0H515L10-1349h201C345-955 498-579 615-168c116-411 269-787 402-1181h201" id="r"/><path d="M1000-272c3 95 12 159 101 161 21 0 41-3 59-7V-6c-44 10-86 16-139 16-141 2-191-84-197-217h-6C748-76 648 20 446 20c-207 0-318-120-318-322 0-266 194-348 454-354l236-4c12-191-40-305-222-305-140 0-220 47-232 172l-188-17c33-204 181-292 423-292 255 0 401 118 401 364v466zm-683-27c0 109 63 184 175 182 166-3 259-96 306-217 24-65 20-120 20-200-232 7-501-28-501 235" id="s"/><path d="M736-142h380V0H134v-142h422v-1200H267v-142h469v1342" id="t"/><path d="M528 20c-247 0-343-132-343-381v-721h180v686c-4 177 45 284 224 277 194-8 279-136 279-336v-627h181c3 360-6 732 6 1082H885c-4-54-7-126-8-185h-3C809-64 714 20 528 20" id="u"/><g id="c"><use transform="matrix(0.017361111111111112,0,0,0.017361111111111112,0,0)" xlink:href="#r"/><use transform="matrix(0.017361111111111112,0,0,0.017361111111111112,21.336805555555557,0)" xlink:href="#s"/><use transform="matrix(0.017361111111111112,0,0,0.017361111111111112,42.673611111111114,0)" xlink:href="#t"/><use transform="matrix(0.017361111111111112,0,0,0.017361111111111112,64.01041666666667,0)" xlink:href="#u"/><use transform="matrix(0.017361111111111112,0,0,0.017361111111111112,85.34722222222223,0)" xlink:href="#p"/><use transform="matrix(0.017361111111111112,0,0,0.017361111111111112,106.68402777777779,0)" xlink:href="#m"/><use transform="matrix(0.017361111111111112,0,0,0.017361111111111112,128.02083333333334,0)" xlink:href="#n"/><use transform="matrix(0.017361111111111112,0,0,0.017361111111111112,149.3576388888889,0)" xlink:href="#j"/><use transform="matrix(0.017361111111111112,0,0,0.017361111111111112,170.69444444444446,0)" xlink:href="#o"/></g><g id="d"><use transform="matrix(0.017361111111111112,0,0,0.017361111111111112,0,0)" xlink:href="#r"/><use transform="matrix(0.017361111111111112,0,0,0.017361111111111112,21.336805555555557,0)" xlink:href="#s"/><use transform="matrix(0.017361111111111112,0,0,0.017361111111111112,42.673611111111114,0)" xlink:href="#t"/><use transform="matrix(0.017361111111111112,0,0,0.017361111111111112,64.01041666666667,0)" xlink:href="#u"/><use transform="matrix(0.017361111111111112,0,0,0.017361111111111112,85.34722222222223,0)" xlink:href="#p"/><use transform="matrix(0.017361111111111112,0,0,0.017361111111111112,106.68402777777779,0)" xlink:href="#m"/><use transform="matrix(0.017361111111111112,0,0,0.017361111111111112,128.02083333333334,0)" xlink:href="#l"/><use transform="matrix(0.017361111111111112,0,0,0.017361111111111112,149.3576388888889,0)" xlink:href="#p"/><use transform="matrix(0.017361111111111112,0,0,0.017361111111111112,170.69444444444446,0)" xlink:href="#q"/></g><path d="M709-1193V0H519v-1193H76v-156h1076v156H709" id="v"/><g id="e"><use transform="matrix(0.017361111111111112,0,0,0.017361111111111112,0,0)" xlink:href="#v"/><use transform="matrix(0.017361111111111112,0,0,0.017361111111111112,21.336805555555557,0)" xlink:href="#m"/><use transform="matrix(0.017361111111111112,0,0,0.017361111111111112,42.673611111111114,0)" xlink:href="#n"/><use transform="matrix(0.017361111111111112,0,0,0.017361111111111112,64.01041666666667,0)" xlink:href="#j"/><use transform="matrix(0.017361111111111112,0,0,0.017361111111111112,85.34722222222223,0)" xlink:href="#o"/></g><g id="f"><use transform="matrix(0.017361111111111112,0,0,0.017361111111111112,0,0)" xlink:href="#v"/><use transform="matrix(0.017361111111111112,0,0,0.017361111111111112,21.336805555555557,0)" xlink:href="#m"/><use transform="matrix(0.017361111111111112,0,0,0.017361111111111112,42.673611111111114,0)" xlink:href="#l"/><use transform="matrix(0.017361111111111112,0,0,0.017361111111111112,64.01041666666667,0)" xlink:href="#p"/><use transform="matrix(0.017361111111111112,0,0,0.017361111111111112,85.34722222222223,0)" xlink:href="#q"/></g></defs></g></svg>