<svg xmlns="http://www.w3.org/2000/svg" xmlns:xlink="http://www.w3.org/1999/xlink" xmlns:lucid="lucid" width="620" height="460"><g transform="translate(20 20)" lucid:page-tab-id="0_0"><path d="M0 0h240v60H0z" stroke="#000" stroke-opacity="0" stroke-width="2" fill="#fff" fill-opacity="0"/><use xlink:href="#a" transform="matrix(1,0,0,1,5,5) translate(8.315972222222229 35.65972222222222)"/><path d="M0 120h240v60H0z" stroke="#000" stroke-opacity="0" stroke-width="2" fill="#fff" fill-opacity="0"/><use xlink:href="#b" transform="matrix(1,0,0,1,5,125) translate(8.315972222222229 35.65972222222222)"/><path d="M120 119V78.5" stroke="#000" stroke-width="2" fill="none"/><path d="M121 120h-2v-1.03h2z"/><path d="M120 63.24l4.64 14.26h-9.28z" stroke="#000" stroke-width="2"/><path d="M340 0h240v60H340z" stroke="#000" stroke-opacity="0" stroke-width="2" fill="#fff" fill-opacity="0"/><use xlink:href="#c" transform="matrix(1,0,0,1,345,5) translate(18.984375 35.65972222222222)"/><path d="M340 120h240v60H340z" stroke="#000" stroke-opacity="0" stroke-width="2" fill="#fff" fill-opacity="0"/><use xlink:href="#d" transform="matrix(1,0,0,1,345,125) translate(18.984375 35.65972222222222)"/><path d="M460 119V78.5" stroke="#000" stroke-width="2" fill="none"/><path d="M461 120h-2v-1.03h2z"/><path d="M460 63.24l4.64 14.26h-9.28z" stroke="#000" stroke-width="2"/><path d="M180 240h240v60H180z" stroke="#000" stroke-opacity="0" stroke-width="2" fill="#fff" fill-opacity="0"/><use xlink:href="#e" transform="matrix(1,0,0,1,185,245) translate(61.65798611111111 35.65972222222222)"/><path d="M180 360h240v60H180z" stroke="#000" stroke-opacity="0" stroke-width="2" fill="#fff" fill-opacity="0"/><use xlink:href="#f" transform="matrix(1,0,0,1,185,365) translate(61.65798611111111 35.65972222222222)"/><path d="M300 359v-40.5" stroke="#000" stroke-width="2" fill="none"/><path d="M301 360h-2v-1.03h2z"/><path d="M300 303.24l4.64 14.26h-9.28z" stroke="#000" stroke-width="2"/><path d="M198.04 180.7l46.2 46.22" stroke="#000" stroke-width="2" fill="none"/><path d="M198.77 180.02l-1.42 1.4-1.43-1.42h2.83z"/><path d="M255.05 237.7l-13.37-6.8 6.56-6.55z" stroke="#000" stroke-width="2"/><path d="M392.63 180.7l-46.2 46.22" stroke="#000" stroke-width="2" fill="none"/><path d="M393.32 181.43l-1.42-1.4.02-.03h2.83z"/><path d="M335.62 237.7l6.8-13.35 6.57 6.55z" stroke="#000" stroke-width="2"/><path d="M339 30h-80.5" stroke="#000" stroke-width="2" fill="none"/><path d="M340 31h-1.03v-2H340z"/><path d="M243.24 30l14.26-4.64v9.28z" stroke="#000" stroke-width="2"/><path d="M339 150h-80.5" stroke="#000" stroke-width="2" fill="none"/><path d="M340 151h-1.03v-2H340z"/><path d="M243.24 150l14.26-4.64v9.28z" stroke="#000" stroke-width="2"/><path d="M180 100h240v60H180z" stroke="#000" stroke-opacity="0" stroke-width="2" fill="#fff" fill-opacity="0"/><use xlink:href="#g" transform="matrix(1,0,0,1,185,105) translate(55.12345679012344 28.555555555555557)"/><use xlink:href="#h" transform="matrix(1,0,0,1,185,105) translate(133.39506172839506 28.555555555555557)"/><defs><path d="M202-1349h823v156H709v1037h316V0H202v-156h316v-1037H202v-156" id="i"/><path d="M932 0L611-444 288 0H94l415-556-397-526h199l300 421 298-421h201L713-558 1133 0H932" id="j"/><path d="M1003 0L516-638 353-469V0H162v-1349h191v673l572-673h225L646-777 1227 0h-224" id="k"/><path d="M745-142h380V0H143v-142h422v-798H246v-142h499v940zM545-1292v-192h200v192H545" id="l"/><path d="M706-1102c241 0 344 136 343 381V0H868v-695c1-168-57-273-220-268-190 6-283 138-283 336V0H185c-3-360 6-732-6-1082h170c4 54 7 126 8 185h3c63-121 164-204 346-205" id="m"/><path d="M865-914c-3-187-2-380-2-570h180v1261c0 76 1 155 6 223H877c-8-49-9-116-10-174h-5C801-44 708 26 530 26c-135 0-234-46-297-139s-95-232-95-419c0-377 131-566 392-566 176 0 271 63 335 184zm-286-51c-222 0-255 197-255 427 0 229 31 425 253 425 237 0 286-195 286-441 0-238-52-411-284-411" id="n"/><path d="M496 0v-299h235V0H496zm0-783v-299h235v299H496" id="o"/><path d="M873-819c-18-114-119-146-250-146-163 0-245 50-245 151 0 151 170 148 294 185 182 54 388 94 388 320 0 240-189 325-439 329-245 4-410-69-454-268l159-31c24 133 136 168 295 165 144-2 270-31 270-171 0-164-195-160-331-202-167-52-350-87-350-299 0-218 173-315 413-313 220 2 373 77 412 260" id="p"/><path d="M1048-32c-2 300-135 456-433 456-222-1-358-88-400-267l184-25c22 99 100 157 222 156 184-2 248-125 248-315 0-64 3-133-2-194C807-100 706-13 524-12c-306 0-381-228-381-537 0-318 85-550 400-550 164 0 271 83 325 202h3c1-60 3-134 12-185h171c-13 339-4 702-6 1050zM585-145c210-8 284-178 284-406 0-192-52-331-177-392-33-16-69-22-104-22-223 2-259 184-259 414 0 229 31 415 256 406" id="q"/><g id="a"><use transform="matrix(0.017361111111111112,0,0,0.017361111111111112,0,0)" xlink:href="#i"/><use transform="matrix(0.017361111111111112,0,0,0.017361111111111112,21.336805555555557,0)" xlink:href="#j"/><use transform="matrix(0.017361111111111112,0,0,0.017361111111111112,42.673611111111114,0)" xlink:href="#k"/><use transform="matrix(0.017361111111111112,0,0,0.017361111111111112,64.01041666666667,0)" xlink:href="#l"/><use transform="matrix(0.017361111111111112,0,0,0.017361111111111112,85.34722222222223,0)" xlink:href="#m"/><use transform="matrix(0.017361111111111112,0,0,0.017361111111111112,106.68402777777779,0)" xlink:href="#n"/><use transform="matrix(0.017361111111111112,0,0,0.017361111111111112,128.02083333333334,0)" xlink:href="#o"/><use transform="matrix(0.017361111111111112,0,0,0.017361111111111112,149.3576388888889,0)" xlink:href="#p"/><use transform="matrix(0.017361111111111112,0,0,0.017361111111111112,170.69444444444446,0)" xlink:href="#l"/><use transform="matrix(0.017361111111111112,0,0,0.017361111111111112,192.03125,0)" xlink:href="#q"/></g><path d="M617-1102c355 0 481 238 477 599H322c5 222 84 388 301 388 144 0 244-59 284-166l158 45C1002-72 854 20 623 20c-342 0-490-220-490-568 0-346 151-554 484-554zm291 461c-18-192-90-328-289-328-194 0-287 128-295 328h584" id="r"/><path d="M839-1335c-182-6-269 67-259 253h491v142H580V0H400v-940H138v-142h262c-15-293 132-408 418-402 94 2 200 7 281 21v145c-75-10-177-14-260-17" id="s"/><g id="b"><use transform="matrix(0.017361111111111112,0,0,0.017361111111111112,0,0)" xlink:href="#i"/><use transform="matrix(0.017361111111111112,0,0,0.017361111111111112,21.336805555555557,0)" xlink:href="#j"/><use transform="matrix(0.017361111111111112,0,0,0.017361111111111112,42.673611111111114,0)" xlink:href="#k"/><use transform="matrix(0.017361111111111112,0,0,0.017361111111111112,64.01041666666667,0)" xlink:href="#l"/><use transform="matrix(0.017361111111111112,0,0,0.017361111111111112,85.34722222222223,0)" xlink:href="#m"/><use transform="matrix(0.017361111111111112,0,0,0.017361111111111112,106.68402777777779,0)" xlink:href="#n"/><use transform="matrix(0.017361111111111112,0,0,0.017361111111111112,128.02083333333334,0)" xlink:href="#o"/><use transform="matrix(0.017361111111111112,0,0,0.017361111111111112,149.3576388888889,0)" xlink:href="#n"/><use transform="matrix(0.017361111111111112,0,0,0.017361111111111112,170.69444444444446,0)" xlink:href="#r"/><use transform="matrix(0.017361111111111112,0,0,0.017361111111111112,192.03125,0)" xlink:href="#s"/></g><path d="M713 0H515L10-1349h201C345-955 498-579 615-168c116-411 269-787 402-1181h201" id="t"/><path d="M1000-272c3 95 12 159 101 161 21 0 41-3 59-7V-6c-44 10-86 16-139 16-141 2-191-84-197-217h-6C748-76 648 20 446 20c-207 0-318-120-318-322 0-266 194-348 454-354l236-4c12-191-40-305-222-305-140 0-220 47-232 172l-188-17c33-204 181-292 423-292 255 0 401 118 401 364v466zm-683-27c0 109 63 184 175 182 166-3 259-96 306-217 24-65 20-120 20-200-232 7-501-28-501 235" id="u"/><path d="M736-142h380V0H134v-142h422v-1200H267v-142h469v1342" id="v"/><path d="M528 20c-247 0-343-132-343-381v-721h180v686c-4 177 45 284 224 277 194-8 279-136 279-336v-627h181c3 360-6 732 6 1082H885c-4-54-7-126-8-185h-3C809-64 714 20 528 20" id="w"/><g id="c"><use transform="matrix(0.017361111111111112,0,0,0.017361111111111112,0,0)" xlink:href="#t"/><use transform="matrix(0.017361111111111112,0,0,0.017361111111111112,21.336805555555557,0)" xlink:href="#u"/><use transform="matrix(0.017361111111111112,0,0,0.017361111111111112,42.673611111111114,0)" xlink:href="#v"/><use transform="matrix(0.017361111111111112,0,0,0.017361111111111112,64.01041666666667,0)" xlink:href="#w"/><use transform="matrix(0.017361111111111112,0,0,0.017361111111111112,85.34722222222223,0)" xlink:href="#r"/><use transform="matrix(0.017361111111111112,0,0,0.017361111111111112,106.68402777777779,0)" xlink:href="#o"/><use transform="matrix(0.017361111111111112,0,0,0.017361111111111112,128.02083333333334,0)" xlink:href="#p"/><use transform="matrix(0.017361111111111112,0,0,0.017361111111111112,149.3576388888889,0)" xlink:href="#l"/><use transform="matrix(0.017361111111111112,0,0,0.017361111111111112,170.69444444444446,0)" xlink:href="#q"/></g><g id="d"><use transform="matrix(0.017361111111111112,0,0,0.017361111111111112,0,0)" xlink:href="#t"/><use transform="matrix(0.017361111111111112,0,0,0.017361111111111112,21.336805555555557,0)" xlink:href="#u"/><use transform="matrix(0.017361111111111112,0,0,0.017361111111111112,42.673611111111114,0)" xlink:href="#v"/><use transform="matrix(0.017361111111111112,0,0,0.017361111111111112,64.01041666666667,0)" xlink:href="#w"/><use transform="matrix(0.017361111111111112,0,0,0.017361111111111112,85.34722222222223,0)" xlink:href="#r"/><use transform="matrix(0.017361111111111112,0,0,0.017361111111111112,106.68402777777779,0)" xlink:href="#o"/><use transform="matrix(0.017361111111111112,0,0,0.017361111111111112,128.02083333333334,0)" xlink:href="#n"/><use transform="matrix(0.017361111111111112,0,0,0.017361111111111112,149.3576388888889,0)" xlink:href="#r"/><use transform="matrix(0.017361111111111112,0,0,0.017361111111111112,170.69444444444446,0)" xlink:href="#s"/></g><path d="M709-1193V0H519v-1193H76v-156h1076v156H709" id="x"/><g id="e"><use transform="matrix(0.017361111111111112,0,0,0.017361111111111112,0,0)" xlink:href="#x"/><use transform="matrix(0.017361111111111112,0,0,0.017361111111111112,21.336805555555557,0)" xlink:href="#o"/><use transform="matrix(0.017361111111111112,0,0,0.017361111111111112,42.673611111111114,0)" xlink:href="#p"/><use transform="matrix(0.017361111111111112,0,0,0.017361111111111112,64.01041666666667,0)" xlink:href="#l"/><use transform="matrix(0.017361111111111112,0,0,0.017361111111111112,85.34722222222223,0)" xlink:href="#q"/></g><g id="f"><use transform="matrix(0.017361111111111112,0,0,0.017361111111111112,0,0)" xlink:href="#x"/><use transform="matrix(0.017361111111111112,0,0,0.017361111111111112,21.336805555555557,0)" xlink:href="#o"/><use transform="matrix(0.017361111111111112,0,0,0.017361111111111112,42.673611111111114,0)" xlink:href="#n"/><use transform="matrix(0.017361111111111112,0,0,0.017361111111111112,64.01041666666667,0)" xlink:href="#r"/><use transform="matrix(0.017361111111111112,0,0,0.017361111111111112,85.34722222222223,0)" xlink:href="#s"/></g><path d="M233-177c-1 41-23 64-60 70L243 0h-38l-65-103H63V0H30v-248c88 3 205-21 203 71zM63-129c60-2 137 13 137-47 0-61-80-42-137-45v92" id="y"/><path d="M24-231v-30h32v30H24zM24 0v-190h32V0H24" id="z"/><path d="M96-169c-40 0-48 33-48 73s9 75 48 75c24 0 41-14 43-38l32 2c-6 37-31 61-74 61-59 0-76-41-82-99-10-93 101-131 147-64 4 7 5 14 7 22l-32 3c-4-21-16-35-41-35" id="A"/><path d="M106-169C34-169 62-67 57 0H25v-261h32l-1 103c12-21 28-36 61-36 89 0 53 116 60 194h-32v-121c2-32-8-49-39-48" id="B"/><path d="M141-36C126-15 110 5 73 4 37 3 15-17 15-53c-1-64 63-63 125-63 3-35-9-54-41-54-24 1-41 7-42 31l-33-3c5-37 33-52 76-52 45 0 72 20 72 64v82c-1 20 7 32 28 27v20c-31 9-61-2-59-35zM48-53c0 20 12 33 32 33 41-3 63-29 60-74-43 2-92-5-92 41" id="C"/><path d="M114-163C36-179 61-72 57 0H25l-1-190h30c1 12-1 29 2 39 6-27 23-49 58-41v29" id="D"/><path d="M85-194c31 0 48 13 60 33l-1-100h32l1 261h-30c-2-10 0-23-3-31C134-8 116 4 85 4 32 4 16-35 15-94c0-66 23-100 70-100zm9 24c-40 0-46 34-46 75 0 40 6 74 45 74 42 0 51-32 51-76 0-42-9-74-50-73" id="E"/><path d="M47-170H22l-4-78h33" id="F"/><path d="M135-143c-3-34-86-38-87 0 15 53 115 12 119 90S17 21 10-45l28-5c4 36 97 45 98 0-10-56-113-15-118-90-4-57 82-63 122-42 12 7 21 19 24 35" id="G"/><g id="g"><use transform="matrix(0.04938271604938272,0,0,0.04938271604938272,0,0)" xlink:href="#y"/><use transform="matrix(0.04938271604938272,0,0,0.04938271604938272,12.790123456790125,0)" xlink:href="#z"/><use transform="matrix(0.04938271604938272,0,0,0.04938271604938272,16.69135802469136,0)" xlink:href="#A"/><use transform="matrix(0.04938271604938272,0,0,0.04938271604938272,25.58024691358025,0)" xlink:href="#B"/><use transform="matrix(0.04938271604938272,0,0,0.04938271604938272,35.4567901234568,0)" xlink:href="#C"/><use transform="matrix(0.04938271604938272,0,0,0.04938271604938272,45.33333333333334,0)" xlink:href="#D"/><use transform="matrix(0.04938271604938272,0,0,0.04938271604938272,51.209876543209894,0)" xlink:href="#E"/><use transform="matrix(0.04938271604938272,0,0,0.04938271604938272,61.08641975308644,0)" xlink:href="#F"/><use transform="matrix(0.04938271604938272,0,0,0.04938271604938272,64.44444444444446,0)" xlink:href="#G"/></g><path d="M30 0v-248h187v28H63v79h144v27H63v87h162V0H30" id="H"/><path d="M177-190C167-65 218 103 67 71c-23-6-38-20-44-43l32-5c15 47 100 32 89-28v-30C133-14 115 1 83 1 29 1 15-40 15-95c0-56 16-97 71-98 29-1 48 16 59 35 1-10 0-23 2-32h30zM94-22c36 0 50-32 50-73 0-42-14-75-50-75-39 0-46 34-46 75s6 73 46 73" id="I"/><path d="M100-194c63 0 86 42 84 106H49c0 40 14 67 53 68 26 1 43-12 49-29l28 8c-11 28-37 45-77 45C44 4 14-33 15-96c1-61 26-98 85-98zm52 81c6-60-76-77-97-28-3 7-6 17-6 28h103" id="J"/><g id="h"><use transform="matrix(0.04938271604938272,0,0,0.04938271604938272,0,0)" xlink:href="#H"/><use transform="matrix(0.04938271604938272,0,0,0.04938271604938272,11.851851851851853,0)" xlink:href="#E"/><use transform="matrix(0.04938271604938272,0,0,0.04938271604938272,21.7283950617284,0)" xlink:href="#I"/><use transform="matrix(0.04938271604938272,0,0,0.04938271604938272,31.60493827160494,0)" xlink:href="#J"/></g></defs></g></svg>